<svg xmlns="http://www.w3.org/2000/svg" viewBox="0 0 700 990">
  <defs>
    <linearGradient id="paper" x1="0" y1="0" x2="1" y2="1">
      <stop stop-color="#fffaf0"/>
      <stop offset="1" stop-color="#f0dbad"/>
    </linearGradient>
    <pattern id="pattern" width="90" height="90" patternUnits="userSpaceOnUse">
      <path d="M45 8c8 14 20 25 37 37-17 12-29 23-37 37-8-14-20-25-37-37C25 33 37 22 45 8Z" fill="none" stroke="#bd8728" stroke-width="2" opacity=".18"/>
    </pattern>
  </defs>
  <rect width="700" height="990" fill="url(#paper)"/>
  <rect width="700" height="990" fill="url(#pattern)"/>
  <path d="M0 0h700v115H0z" fill="#784517"/>
  <path d="M0 860c170-80 320-65 700 15v115H0z" fill="#b77a1e" opacity=".8"/>
  <g fill="none" stroke="#8b5b1e" stroke-width="14" stroke-linecap="round">
    <path d="M210 305h280M210 365h280M210 425h205"/>
  </g>
  <rect x="210" y="525" width="280" height="175" rx="24" fill="#fff4d5" stroke="#c99a42" stroke-width="8"/>
  <path d="M305 575h90v75h-90zM325 555h50v20h-50z" fill="#a86b19"/>
</svg>
